<svg width="32" height="32" viewBox="0 0 32 32" fill="none" xmlns="http://www.w3.org/2000/svg">
<rect width="32" height="32" rx="8" fill="#B6B6B6"/>
<path d="M11.646 11.72C12.2093 11.72 12.712 11.837 13.154 12.071C13.6047 12.305 13.9557 12.6517 14.207 13.111C14.467 13.5703 14.597 14.125 14.597 14.775V19H13.128V14.996C13.128 14.3547 12.9677 13.865 12.647 13.527C12.3263 13.1803 11.8887 13.007 11.334 13.007C10.7793 13.007 10.3373 13.1803 10.008 13.527C9.68733 13.865 9.527 14.3547 9.527 14.996V19H8.058V14.996C8.058 14.3547 7.89767 13.865 7.577 13.527C7.25633 13.1803 6.81867 13.007 6.264 13.007C5.70933 13.007 5.26733 13.1803 4.938 13.527C4.61733 13.865 4.457 14.3547 4.457 14.996V19H2.975V11.837H4.457V12.656C4.69967 12.3613 5.00733 12.1317 5.38 11.967C5.75267 11.8023 6.15133 11.72 6.576 11.72C7.148 11.72 7.65933 11.8413 8.11 12.084C8.56067 12.3267 8.90733 12.6777 9.15 13.137C9.36667 12.7037 9.70467 12.3613 10.164 12.11C10.6233 11.85 11.1173 11.72 11.646 11.72ZM22.9308 11.837L18.5368 22.367H17.0028L18.4588 18.883L15.6378 11.837H17.2888L19.3038 17.297L21.3968 11.837H22.9308ZM25.5312 9.38V19H24.0492V9.38H25.5312ZM28.075 19.091C27.8063 19.091 27.581 19 27.399 18.818C27.217 18.636 27.126 18.4107 27.126 18.142C27.126 17.8733 27.217 17.648 27.399 17.466C27.581 17.284 27.8063 17.193 28.075 17.193C28.335 17.193 28.556 17.284 28.738 17.466C28.92 17.648 29.011 17.8733 29.011 18.142C29.011 18.4107 28.92 18.636 28.738 18.818C28.556 19 28.335 19.091 28.075 19.091Z" fill="#1E1E1E"/>
<path d="M23.028 19.752C23.3 19.752 23.5187 19.836 23.684 20.004C23.852 20.1693 23.936 20.4013 23.936 20.7V22H23.376V20.776C23.376 20.6027 23.332 20.4707 23.244 20.38C23.156 20.2867 23.036 20.24 22.884 20.24C22.732 20.24 22.6107 20.2867 22.52 20.38C22.432 20.4707 22.388 20.6027 22.388 20.776V22H21.828V20.776C21.828 20.6027 21.784 20.4707 21.696 20.38C21.608 20.2867 21.488 20.24 21.336 20.24C21.1813 20.24 21.0587 20.2867 20.968 20.38C20.88 20.4707 20.836 20.6027 20.836 20.776V22H20.276V19.784H20.836V20.052C20.908 19.9587 21 19.8853 21.112 19.832C21.2267 19.7787 21.352 19.752 21.488 19.752C21.6613 19.752 21.816 19.7893 21.952 19.864C22.088 19.936 22.1933 20.04 22.268 20.176C22.34 20.048 22.444 19.9453 22.58 19.868C22.7187 19.7907 22.868 19.752 23.028 19.752ZM25.4514 22.036C25.2381 22.036 25.0461 21.9893 24.8754 21.896C24.7047 21.8 24.5701 21.6653 24.4714 21.492C24.3754 21.3187 24.3274 21.1187 24.3274 20.892C24.3274 20.6653 24.3767 20.4653 24.4754 20.292C24.5767 20.1187 24.7141 19.9853 24.8874 19.892C25.0607 19.796 25.2541 19.748 25.4674 19.748C25.6807 19.748 25.8741 19.796 26.0474 19.892C26.2207 19.9853 26.3567 20.1187 26.4554 20.292C26.5567 20.4653 26.6074 20.6653 26.6074 20.892C26.6074 21.1187 26.5554 21.3187 26.4514 21.492C26.3501 21.6653 26.2114 21.8 26.0354 21.896C25.8621 21.9893 25.6674 22.036 25.4514 22.036ZM25.4514 21.548C25.5527 21.548 25.6474 21.524 25.7354 21.476C25.8261 21.4253 25.8981 21.3507 25.9514 21.252C26.0047 21.1533 26.0314 21.0333 26.0314 20.892C26.0314 20.6813 25.9754 20.52 25.8634 20.408C25.7541 20.2933 25.6194 20.236 25.4594 20.236C25.2994 20.236 25.1647 20.2933 25.0554 20.408C24.9487 20.52 24.8954 20.6813 24.8954 20.892C24.8954 21.1027 24.9474 21.2653 25.0514 21.38C25.1581 21.492 25.2914 21.548 25.4514 21.548ZM29.0782 20.844C29.0782 20.924 29.0729 20.996 29.0622 21.06H27.4422C27.4555 21.22 27.5115 21.3453 27.6102 21.436C27.7089 21.5267 27.8302 21.572 27.9742 21.572C28.1822 21.572 28.3302 21.4827 28.4182 21.304H29.0222C28.9582 21.5173 28.8355 21.6933 28.6542 21.832C28.4729 21.968 28.2502 22.036 27.9862 22.036C27.7729 22.036 27.5809 21.9893 27.4102 21.896C27.2422 21.8 27.1102 21.6653 27.0142 21.492C26.9209 21.3187 26.8742 21.1187 26.8742 20.892C26.8742 20.6627 26.9209 20.4613 27.0142 20.288C27.1075 20.1147 27.2382 19.9813 27.4062 19.888C27.5742 19.7947 27.7675 19.748 27.9862 19.748C28.1969 19.748 28.3849 19.7933 28.5502 19.884C28.7182 19.9747 28.8475 20.104 28.9382 20.272C29.0315 20.4373 29.0782 20.628 29.0782 20.844ZM28.4982 20.684C28.4955 20.54 28.4435 20.4253 28.3422 20.34C28.2409 20.252 28.1169 20.208 27.9702 20.208C27.8315 20.208 27.7142 20.2507 27.6182 20.336C27.5249 20.4187 27.4675 20.5347 27.4462 20.684H28.4982Z" fill="#1E1E1E"/>
</svg>
